<svg width="32" height="33" viewBox="0 0 32 33" fill="none" xmlns="http://www.w3.org/2000/svg">
<path fill-rule="evenodd" clip-rule="evenodd" d="M5.80195 4.80941C5.38973 4.39719 4.72139 4.39719 4.30917 4.80941C3.89694 5.22163 3.89694 5.88997 4.30917 6.30219L6.75606 8.74908C6.06772 8.83908 5.42374 9.15362 4.9275 9.64986C4.33363 10.2437 4 11.0492 4 11.889V22.4446C4 23.2844 4.33363 24.0899 4.9275 24.6838C5.52136 25.2776 6.32681 25.6112 7.16667 25.6112H18.7778C19.6176 25.6112 20.4231 25.2776 21.0169 24.6838C21.3065 24.3942 21.5342 24.0543 21.6916 23.6846L27.5314 29.5244C27.9436 29.9366 28.6119 29.9366 29.0242 29.5244C29.4364 29.1122 29.4364 28.4439 29.0242 28.0316L21.6441 20.6516C21.6412 20.6486 21.6382 20.6456 21.6353 20.6426L10.0242 9.03153C10.0213 9.02861 10.0183 9.02571 10.0154 9.02283L5.80195 4.80941ZM8.84045 10.8335L19.8333 21.8264V22.4446C19.8333 22.7245 19.7221 22.993 19.5242 23.191C19.3262 23.3889 19.0577 23.5001 18.7778 23.5001H7.16667C6.88672 23.5001 6.61823 23.3889 6.42028 23.191C6.22232 22.993 6.11111 22.7245 6.11111 22.4446V11.889C6.11111 11.6091 6.22232 11.3406 6.42028 11.1426C6.61823 10.9447 6.88672 10.8335 7.16667 10.8335H8.84045ZM15.2522 10.8335H18.7778C19.0577 10.8335 19.3262 10.9447 19.5242 11.1426C19.7221 11.3406 19.8333 11.6091 19.8333 11.889V15.4146C19.8333 15.6945 19.9445 15.963 20.1425 16.161L21.1981 17.2165C21.5646 17.5831 22.1431 17.6292 22.5631 17.3254L27.2222 13.9553V22.4446C27.2222 23.0275 27.6948 23.5001 28.2778 23.5001C28.8607 23.5001 29.3333 23.0275 29.3333 22.4446V11.889C29.3333 11.4925 29.1111 11.1294 28.758 10.949C28.4049 10.7686 27.9804 10.8014 27.6591 11.0338L22.0547 15.0876L21.9444 14.9774V11.889C21.9444 11.0492 21.6108 10.2437 21.0169 9.64986C20.4231 9.05599 19.6176 8.72236 18.7778 8.72236H15.2522C14.6693 8.72236 14.1967 9.19495 14.1967 9.77792C14.1967 10.3609 14.6693 10.8335 15.2522 10.8335Z" fill="#EFF0FA"/>
</svg>
