<svg width="66" height="65" viewBox="0 0 66 65" fill="none" xmlns="http://www.w3.org/2000/svg">
<path fill-rule="evenodd" clip-rule="evenodd" d="M43.0104 28.1864V21.5312C43.0104 17.9241 40.0863 15 36.4792 15H12.5312C8.92414 15 6 17.9241 6 21.5312V43.3021C6 46.9092 8.92414 49.8333 12.5312 49.8333H36.4792C40.0863 49.8333 43.0104 46.9092 43.0104 43.3021V36.6474L54.8075 45.0739C55.4711 45.5479 56.344 45.6113 57.0691 45.2381C57.7942 44.8649 58.25 44.1178 58.25 43.3023V21.5315C58.25 20.716 57.7942 19.9688 57.0691 19.5957C56.344 19.2225 55.4711 19.2859 54.8075 19.7599L43.0104 28.1864ZM10.3542 21.5312C10.3542 20.3289 11.3289 19.3542 12.5312 19.3542H36.4792C37.6815 19.3542 38.6562 20.3289 38.6562 21.5312V43.3021C38.6562 44.5045 37.6815 45.4792 36.4792 45.4792H12.5312C11.3289 45.4792 10.3542 44.5045 10.3542 43.3021V21.5312ZM53.8958 39.0718L44.5789 32.4169L53.8958 25.762V39.0718Z" fill="white"/>
</svg>
