<svg width="32" height="32" viewBox="0 0 32 32" fill="none" xmlns="http://www.w3.org/2000/svg">
<path d="M24.6002 25.7333C24.9008 25.7333 25.189 25.6138 25.4016 25.4013C25.6141 25.1888 25.7335 24.9005 25.7335 24.5999L25.7335 8.73325C25.7335 8.43267 25.6141 8.14441 25.4016 7.93186C25.189 7.71932 24.9008 7.59992 24.6002 7.59992L20.0669 7.59992C19.4409 7.59992 18.9335 7.09251 18.9335 6.46659C18.9335 5.84066 19.4409 5.33325 20.0669 5.33325L24.6002 5.33325C25.5019 5.33325 26.3667 5.69147 27.0044 6.32909C27.642 6.96671 28.0002 7.83151 28.0002 8.73325V24.5999C28.0002 25.5017 27.642 26.3665 27.0044 27.0041C26.3667 27.6417 25.5019 27.9999 24.6002 27.9999H20.0669C19.4409 27.9999 18.9335 27.4925 18.9335 26.8666C18.9335 26.2407 19.4409 25.7333 20.0669 25.7333H24.6002Z" fill="#FFEDEC"/>
<path d="M12.9349 23.1346C12.4923 23.5772 11.7747 23.5772 11.3321 23.1346L5.66899 17.4715C5.65699 17.4596 5.64525 17.4474 5.63378 17.435C5.54484 17.3387 5.47565 17.2308 5.42623 17.1163C5.36656 16.9784 5.3335 16.8264 5.3335 16.6666C5.3335 16.5065 5.36667 16.3542 5.42651 16.2162C5.47546 16.103 5.54373 15.9962 5.63132 15.9008C5.64362 15.8874 5.65624 15.8743 5.66917 15.8615L11.3321 10.1985C11.7747 9.75593 12.4923 9.75593 12.9349 10.1985C13.3775 10.6411 13.3775 11.3587 12.9349 11.8013L9.20295 15.5332L20.0668 15.5332C20.6928 15.5332 21.2002 16.0407 21.2002 16.6666C21.2002 17.2925 20.6928 17.7999 20.0668 17.7999H9.20295L12.9349 21.5319C13.3775 21.9745 13.3775 22.692 12.9349 23.1346Z" fill="#FFEDEC"/>
</svg>
