<svg width="current" height="current" viewBox="0 0 32 33" fill="none" xmlns="http://www.w3.org/2000/svg">
<path fill-rule="evenodd" clip-rule="evenodd" d="M2.99157 3.49194C3.425 3.05851 4.12514 3.05851 4.55856 3.49194L13.3601 12.2934C13.3948 12.3209 13.4284 12.3507 13.4604 12.3827L19.1505 18.0728C19.1823 18.1046 19.2117 18.1378 19.2388 18.1722L22.0952 21.0286C22.1788 21.0759 22.2575 21.1353 22.3289 21.2068C22.4015 21.2793 22.4622 21.3594 22.511 21.4444L29.0081 27.9415C29.4415 28.3749 29.4415 29.075 29.0081 29.5085C28.5747 29.9419 27.8745 29.9419 27.4411 29.5085L21.4778 23.5451C20.3946 24.3948 19.1277 24.9852 17.7724 25.2632C17.5548 25.3078 17.3361 25.3442 17.1168 25.3725V27.608H20.4507C21.062 27.608 21.5621 28.1081 21.5621 28.7193C21.5621 29.3306 21.062 29.8307 20.4507 29.8307H16.0239C16.0177 29.8308 16.0116 29.8308 16.0054 29.8308C15.9992 29.8308 15.9931 29.8308 15.9869 29.8307H11.56C10.9488 29.8307 10.4487 29.3417 10.4487 28.7193C10.4487 28.1081 10.9488 27.608 11.56 27.608H14.8941V25.3785C14.1092 25.2818 13.3355 25.08 12.5936 24.7742C10.9599 24.0963 9.55961 22.9516 8.58163 21.4735C7.61476 19.9954 7.10354 18.2617 7.11465 16.4947V14.272C7.11465 13.6608 7.61476 13.1607 8.22599 13.1607C8.83723 13.1607 9.33734 13.6608 9.33734 14.272V16.5058C9.32622 17.8394 9.71519 19.1397 10.4487 20.2399C11.1822 21.3402 12.2379 22.207 13.4604 22.7182C14.1705 23.0125 14.9173 23.1779 15.6714 23.2144C15.7769 23.1809 15.8891 23.1628 16.0054 23.1628C16.1204 23.1628 16.2314 23.1805 16.3359 23.2132C16.6714 23.1959 17.0067 23.1531 17.339 23.085C18.2653 22.895 19.1352 22.5132 19.8964 21.9638L18.2608 20.3281C17.8341 20.5785 17.3658 20.7563 16.8723 20.8512C16.5833 20.9179 16.2944 20.9401 16.0054 20.9401C15.4275 20.9401 14.8496 20.8289 14.3051 20.5956C13.4938 20.2622 12.8047 19.6954 12.3158 18.9619C11.8157 18.2395 11.56 17.3838 11.56 16.5058V13.6274L2.99157 5.05893C2.55815 4.62551 2.55815 3.92536 2.99157 3.49194ZM16.5741 18.6415L13.794 15.8613L13.7827 15.8501V16.4947C13.7827 16.9392 13.9161 17.3616 14.1606 17.7283C14.4051 18.095 14.7496 18.3729 15.1608 18.5507C15.5609 18.7174 16.0054 18.7618 16.4388 18.6729C16.4808 18.6624 16.5228 18.652 16.5741 18.6415Z" fill="#EFF0FA"/>
<path d="M19.3394 14.6499C18.7282 14.6499 18.2281 14.1498 18.2281 13.5385V7.60397C18.2281 7.0483 18.0281 6.52597 17.6502 6.11477C17.2835 5.70357 16.7722 5.44796 16.2277 5.3924C15.6831 5.33683 15.1275 5.4813 14.6829 5.81471C14.2384 6.137 13.9383 6.62599 13.8272 7.15943C13.7049 7.75956 13.1159 8.14853 12.5158 8.02628C11.9157 7.90403 11.5267 7.32613 11.649 6.72601C11.8712 5.64801 12.4825 4.69225 13.3715 4.03656C14.2606 3.38087 15.3608 3.0808 16.4611 3.19194C17.5613 3.30307 18.5726 3.81429 19.3172 4.63668C20.0396 5.44796 20.4508 6.50374 20.4508 7.61508V13.5497C20.4508 14.1609 19.9507 14.6499 19.3394 14.6499Z" fill="#EFF0FA"/>
<path d="M24.8961 14.272C24.8961 13.6608 24.396 13.1607 23.7848 13.1607C23.1736 13.1607 22.6734 13.6608 22.6734 14.272V16.4947C22.6734 16.8948 22.6401 17.2838 22.5623 17.6727C22.4512 18.2728 22.8624 18.8507 23.4625 18.9619C24.0626 19.073 24.6405 18.6618 24.7517 18.0617C24.8517 17.5394 24.8961 17.017 24.8961 16.4947V14.272Z" fill="#EFF0FA"/>
</svg>
