<svg width="24" height="25" viewBox="0 0 24 25" fill="none" xmlns="http://www.w3.org/2000/svg">
<path d="M12 7.50337C13.1226 7.50337 14 6.62212 14 5.49712C14 4.39087 13.1038 3.50024 12 3.50024C10.9057 3.50024 10 4.39087 10 5.49712C10 6.59399 10.9057 7.50337 12 7.50337ZM12 14.4784C13.1226 14.4784 14 13.6065 14 12.5002C14 11.4034 13.1038 10.5127 12 10.5127C10.9057 10.5127 10 11.4034 10 12.5002C10 13.5877 10.9057 14.4784 12 14.4784ZM12 21.5002C13.1226 21.5002 14 20.619 14 19.5034C14 18.3877 13.1038 17.4971 12 17.4971C10.9057 17.4971 10 18.3877 10 19.5034C10 20.5909 10.9057 21.5002 12 21.5002Z" fill="#EFF0FA"/>
</svg>
