<svg width="32" height="32" viewBox="0 0 32 32" fill="none" xmlns="http://www.w3.org/2000/svg">
<path fill-rule="evenodd" clip-rule="evenodd" d="M9.06652 10.6666C9.06652 8.89927 10.4992 7.46658 12.2665 7.46658C14.0338 7.46658 15.4665 8.89927 15.4665 10.6666C15.4665 12.4339 14.0338 13.8666 12.2665 13.8666C10.4992 13.8666 9.06652 12.4339 9.06652 10.6666ZM12.2665 5.33325C9.321 5.33325 6.93318 7.72107 6.93318 10.6666C6.93318 13.6121 9.321 15.9999 12.2665 15.9999C15.212 15.9999 17.5998 13.6121 17.5998 10.6666C17.5998 7.72107 15.212 5.33325 12.2665 5.33325ZM7.99984 18.1332C6.58535 18.1332 5.22879 18.6951 4.2286 19.6953C3.22841 20.6955 2.6665 22.0521 2.6665 23.4666V25.5999C2.6665 26.189 3.14407 26.6666 3.73317 26.6666C4.32227 26.6666 4.79984 26.189 4.79984 25.5999V23.4666C4.79984 22.6179 5.13698 21.8039 5.7371 21.2038C6.33721 20.6037 7.15114 20.2666 7.99984 20.2666H16.5332C17.3819 20.2666 18.1958 20.6037 18.7959 21.2038C19.396 21.8039 19.7332 22.6179 19.7332 23.4666V25.5999C19.7332 26.189 20.2107 26.6666 20.7998 26.6666C21.3889 26.6666 21.8665 26.189 21.8665 25.5999V23.4666C21.8665 22.0521 21.3046 20.6955 20.3044 19.6953C19.3042 18.6951 17.9477 18.1332 16.5332 18.1332H7.99984ZM22.967 19.072C23.1143 18.5016 23.6961 18.1586 24.2665 18.3058C25.4107 18.6013 26.4243 19.2683 27.1483 20.2023C27.8723 21.1362 28.2656 22.2841 28.2665 23.4658V25.6C28.2665 26.1891 27.7889 26.6666 27.1998 26.6666C26.6107 26.6666 26.1332 26.1891 26.1332 25.6V23.4674C26.1326 22.7585 25.8966 22.0696 25.4623 21.5093C25.0279 20.9489 24.4197 20.5487 23.7332 20.3714C23.1628 20.2242 22.8198 19.6424 22.967 19.072ZM19.9977 5.50521C19.4271 5.35909 18.846 5.70327 18.6998 6.27397C18.5537 6.84466 18.8979 7.42575 19.4686 7.57187C20.1569 7.74811 20.767 8.14843 21.2027 8.70972C21.6384 9.27101 21.8749 9.96134 21.8749 10.6719C21.8749 11.3824 21.6384 12.0727 21.2027 12.634C20.767 13.1953 20.1569 13.5956 19.4686 13.7719C18.8979 13.918 18.5537 14.4991 18.6998 15.0698C18.846 15.6405 19.4271 15.9847 19.9977 15.8385C21.145 15.5448 22.1618 14.8776 22.8879 13.9421C23.6141 13.0066 24.0082 11.8561 24.0082 10.6719C24.0082 9.48765 23.6141 8.3371 22.8879 7.40162C22.1618 6.46614 21.145 5.79894 19.9977 5.50521Z" fill="white"/>
</svg>
