<svg width="66" height="66" viewBox="0 0 66 66" fill="none" xmlns="http://www.w3.org/2000/svg">
<path d="M33.25 21.5002C34.4927 21.5002 35.5 22.5075 35.5 23.7502V30.5001H42.25C43.4927 30.5001 44.5 31.5075 44.5 32.7501C44.5 33.9928 43.4927 35.0001 42.25 35.0001H35.5V41.7502C35.5 42.9928 34.4927 44.0002 33.25 44.0002C32.0074 44.0002 31 42.9928 31 41.7502V35.0001H24.25C23.0074 35.0001 22 33.9928 22 32.7501C22 31.5075 23.0074 30.5001 24.25 30.5001H31V23.7502C31 22.5075 32.0074 21.5002 33.25 21.5002Z" fill="#5856D6"/>
<path fill-rule="evenodd" clip-rule="evenodd" d="M8.5 32.75C8.5 19.081 19.581 8 33.25 8C46.919 8 58 19.081 58 32.75C58 46.419 46.919 57.5 33.25 57.5C19.581 57.5 8.5 46.419 8.5 32.75ZM33.25 12.5C22.0662 12.5 13 21.5662 13 32.75C13 43.9338 22.0662 53 33.25 53C44.4338 53 53.5 43.9338 53.5 32.75C53.5 21.5662 44.4338 12.5 33.25 12.5Z" fill="#5856D6"/>
</svg>
