<svg width="32" height="33" viewBox="0 0 32 33" fill="none" xmlns="http://www.w3.org/2000/svg">
<path fill-rule="evenodd" clip-rule="evenodd" d="M11.9057 16.5003C11.9057 18.9112 13.8584 20.8639 16.2693 20.8639C18.6693 20.8639 20.6329 18.9112 20.6329 16.5003C20.6329 14.0894 18.6802 12.1366 16.2693 12.1366C13.8584 12.1366 11.9057 14.0894 11.9057 16.5003ZM14.0875 16.5003C14.0875 15.3003 15.0693 14.3184 16.2693 14.3184C17.4693 14.3184 18.4511 15.3003 18.4511 16.5003C18.4511 17.7003 17.4693 18.6821 16.2693 18.6821C15.0693 18.6821 14.0875 17.7003 14.0875 16.5003Z" fill="current"/>
<path fill-rule="evenodd" clip-rule="evenodd" d="M16.0293 28.5002H16.5093C17.382 28.5002 18.2002 28.1621 18.8329 27.5402C19.4547 26.9184 19.7929 26.1002 19.7929 25.2275V25.0202C19.7929 24.8239 19.8365 24.6384 19.9347 24.4748C20.0329 24.3112 20.1638 24.1693 20.3383 24.0712L20.8074 23.7984C21.1456 23.613 21.5383 23.5912 21.9311 23.8202L22.062 23.8857C22.8038 24.3112 23.7093 24.4312 24.5383 24.213C25.3893 23.9948 26.0874 23.4493 26.5347 22.6857L26.7638 22.2712C27.2002 21.5184 27.3202 20.6348 27.0911 19.7948C26.862 18.9548 26.3165 18.2457 25.5311 17.7875L25.4002 17.7221C25.2256 17.6239 25.0947 17.4821 24.9965 17.3184C24.9093 17.1439 24.8547 16.9584 24.8547 16.7621V16.2166C24.8438 16.0312 24.8983 15.8348 24.9965 15.6712C25.0947 15.5075 25.2256 15.3766 25.4111 15.2675L25.5747 15.1584C26.3274 14.7221 26.862 14.013 27.0911 13.173C27.3202 12.333 27.2002 11.4493 26.7638 10.6966L26.5238 10.2821C26.0874 9.52934 25.3783 8.99479 24.5383 8.7657C23.6983 8.53661 22.8038 8.65661 22.0838 9.07115L21.8874 9.18024C21.5493 9.3657 21.1238 9.3657 20.7965 9.18024L20.3274 8.90752C20.1529 8.82024 20.022 8.67843 19.9238 8.51479C19.8365 8.35115 19.782 8.15479 19.782 7.96934V7.77297C19.782 6.90024 19.4438 6.08206 18.822 5.46024C18.2002 4.83843 17.382 4.50024 16.5093 4.50024H16.0293C15.1565 4.50024 14.3274 4.83843 13.7165 5.46024C13.0947 6.08206 12.7565 6.90024 12.7565 7.77297V7.96934C12.7565 8.15479 12.702 8.35115 12.6147 8.51479C12.5165 8.67843 12.3747 8.82024 12.2111 8.91843L11.742 9.18024C11.4038 9.37661 11.0111 9.39843 10.6074 9.16934L10.4765 9.10388C9.7238 8.66752 8.84016 8.54752 8.00016 8.77661C7.17107 8.99479 6.44016 9.55115 6.01471 10.293L5.77471 10.7075C5.33834 11.4602 5.22925 12.3439 5.44744 13.1839C5.67653 14.0348 6.21107 14.733 6.92016 15.1475L7.13834 15.2893C7.30198 15.3766 7.4438 15.5184 7.52016 15.6712C7.60744 15.8348 7.66198 16.0202 7.66198 16.2057V16.773C7.66198 16.9584 7.61834 17.1548 7.52016 17.3184C7.42198 17.493 7.29107 17.6239 7.10562 17.733L6.9638 17.8202C6.21107 18.2566 5.67653 18.9657 5.44744 19.8057C5.21834 20.6566 5.33834 21.5293 5.77471 22.293L6.02562 22.6966C6.45107 23.4493 7.18198 23.9948 8.01107 24.2239C8.85107 24.453 9.73471 24.333 10.4547 23.9184L10.6511 23.8093C10.9893 23.6239 11.4147 23.6239 11.742 23.8093L12.2111 24.0821C12.3856 24.1802 12.5165 24.3221 12.6147 24.4857C12.702 24.6493 12.7565 24.8457 12.7565 25.0312V25.2275C12.7565 26.1002 13.0947 26.9184 13.7165 27.5402C14.3383 28.1621 15.1565 28.5002 16.0293 28.5002ZM12.8329 21.9221C12.3311 21.6384 11.7747 21.4857 11.1965 21.4857C10.6183 21.4857 10.0511 21.6384 9.6038 21.9112L9.40744 22.0202C9.15653 22.1621 8.86198 22.2057 8.57834 22.1293C8.29471 22.053 8.05471 21.8675 7.91289 21.6166L7.67289 21.2021C7.53107 20.9512 7.48744 20.6566 7.5638 20.373C7.64016 20.0893 7.81471 19.8493 8.08744 19.6966L8.22925 19.6093C8.73107 19.3257 9.14562 18.9112 9.42925 18.4093C9.7238 17.9075 9.86562 17.3402 9.86562 16.773V16.2057C9.86562 15.6384 9.70198 15.0821 9.41834 14.5802C9.13471 14.0784 8.72016 13.6748 8.2838 13.4239L8.06562 13.2821C7.81471 13.1402 7.62925 12.9112 7.55289 12.6275C7.48744 12.3439 7.52016 12.0493 7.66198 11.7984L7.91289 11.3839C8.05471 11.133 8.29471 10.9475 8.56744 10.8821C8.85107 10.8057 9.14562 10.8384 9.42925 11.0021L9.56016 11.0675C10.542 11.6457 11.8293 11.6457 12.8329 11.0675L13.302 10.8057C13.8038 10.5112 14.2183 10.0966 14.502 9.6057C14.7856 9.10388 14.9383 8.54752 14.9383 7.96934V7.77297C14.9383 7.48934 15.0583 7.2057 15.2547 6.99843C15.462 6.80206 15.7456 6.68206 16.0293 6.68206H16.5093C16.7929 6.68206 17.0765 6.80206 17.2838 6.99843C17.4802 7.2057 17.6002 7.48934 17.6002 7.77297V7.98024C17.6002 8.54752 17.7529 9.11479 18.0365 9.61661C18.3202 10.1075 18.7347 10.5221 19.2256 10.8057L19.6947 11.0784C20.6874 11.6566 22.0074 11.6457 22.9347 11.1002L23.1311 10.9912C23.382 10.8493 23.6874 10.8057 23.9602 10.8821C24.2438 10.9584 24.4838 11.133 24.6256 11.3839L24.8656 11.7984C25.0074 12.0493 25.0511 12.3548 24.9747 12.6275C24.8983 12.9002 24.7238 13.1402 24.462 13.293L24.3093 13.3802C23.8074 13.6639 23.3929 14.0784 23.1093 14.5802C22.8256 15.0712 22.6729 15.6493 22.6729 16.2166V16.7621C22.6729 17.3293 22.8256 17.8966 23.1093 18.3984C23.3929 18.9002 23.8074 19.3148 24.342 19.6202L24.4729 19.6857C24.7238 19.8275 24.9093 20.0784 24.9856 20.3512C25.0511 20.6348 25.0183 20.9293 24.8656 21.1912L24.6365 21.6057C24.4838 21.8566 24.2547 22.0312 23.9711 22.1075C23.6874 22.1839 23.382 22.1512 23.1093 21.9875L22.9783 21.9221C21.9856 21.3439 20.6983 21.3439 19.7056 21.9221L19.2365 22.1948C18.7347 22.4893 18.3202 22.893 18.0365 23.3948C17.7529 23.8966 17.6002 24.4639 17.6002 25.0312V25.2275C17.6002 25.5221 17.4911 25.7948 17.2838 26.0021C17.0765 26.2093 16.8038 26.3184 16.5093 26.3184H16.0293C15.7347 26.3184 15.462 26.2093 15.2438 26.0021C15.0365 25.7948 14.9274 25.5221 14.9274 25.2275V25.0202C14.9274 24.4421 14.7747 23.8857 14.4911 23.3839C14.2074 22.893 13.7929 22.4784 13.302 22.1948L12.8329 21.9221Z" fill="current"/>
</svg>
