<svg width="32" height="32" viewBox="0 0 32 32" fill="none" xmlns="http://www.w3.org/2000/svg">
<path fill-rule="evenodd" clip-rule="evenodd" d="M15.0157 8.10422C15.3815 8.28003 15.6142 8.64997 15.6142 9.05584V23.8375C15.6142 24.2434 15.3815 24.6133 15.0157 24.7891C14.6499 24.9649 14.2157 24.9155 13.8987 24.662L8.90879 20.67H5.05583C4.47271 20.67 4 20.1973 4 19.6142V13.2792C4 12.6961 4.47271 12.2233 5.05583 12.2233H8.90879L13.8987 8.23138C14.2157 7.97783 14.6499 7.9284 15.0157 8.10422ZM13.5025 11.2526L9.93873 14.1036C9.75152 14.2534 9.51891 14.335 9.27916 14.335H6.11166V18.5583H9.27916C9.51891 18.5583 9.75152 18.6399 9.93873 18.7897L13.5025 21.6407V11.2526Z" fill="white" style="fill:white;fill-opacity:1;"/>
<path d="M27.9749 12.5326C28.3872 12.9449 28.3872 13.6134 27.9749 14.0258L25.554 16.4467L27.9749 18.8676C28.3872 19.2799 28.3872 19.9484 27.9749 20.3608C27.5626 20.7731 26.8941 20.7731 26.4817 20.3608L24.0608 17.9399L21.6399 20.3608C21.2276 20.7731 20.5591 20.7731 20.1467 20.3608C19.7344 19.9484 19.7344 19.2799 20.1467 18.8676L22.5677 16.4467L20.1467 14.0258C19.7344 13.6134 19.7344 12.9449 20.1467 12.5326C20.5591 12.1203 21.2276 12.1203 21.6399 12.5326L24.0608 14.9535L26.4817 12.5326C26.8941 12.1203 27.5626 12.1203 27.9749 12.5326Z" fill="white" style="fill:white;fill-opacity:1;"/>
</svg>
